<svg xmlns="http://www.w3.org/2000/svg" xmlns:xlink="http://www.w3.org/1999/xlink" version="1.1" viewBox="0 0 2300 1900" style="background: #ffffff"><defs joint-selector="defs"></defs><g joint-selector="layers"  transform="matrix(1,0,0,1,0,0)"><g ></g><g ><!--z-index:0--><!--z-index:1--><!--z-index:2--><!--z-index:3--><!--z-index:4--><!--z-index:5--><!--z-index:6--><!--z-index:7--><!--z-index:8--><!--z-index:9--><!--z-index:10--><!--z-index:11--><!--z-index:12--><!--z-index:13--><g   id="j_3"  transform="translate(20,1856)"><g id="v-7"><text  id="v-8" font-size="24px" xml:space="preserve" y="0.8em" font-weight="normal" text-anchor="start" fill="#444444" pointer-events="none" display="block" font-family="Open Sans, Tahoma, Arial"><tspan dy="0"  display="block">sábado, 6 de diciembre de 2025, 1:07 a. m. hora estándar de Perú</tspan></text></g></g><!--z-index:14--><g   id="j_2"  transform="translate(20,1822)"><g id="v-5"><text  id="v-6" font-size="24px" xml:space="preserve" y="0.8em" font-weight="normal" text-anchor="start" fill="#444444" pointer-events="none" display="block" font-family="Open Sans, Tahoma, Arial"><tspan dy="0"  display="block">Veyra System Context Diagram</tspan></text></g></g><!--z-index:15--><g   id="j_1"  transform="translate(20,1776)"><g id="v-3"><text  id="v-4" font-size="36px" xml:space="preserve" y="0.8em" font-weight="normal" text-anchor="start" fill="#444444" pointer-events="none" display="block" font-family="Open Sans, Tahoma, Arial"><tspan dy="0"  display="block">System Context View: Veyra Software System</tspan></text></g></g><!--z-index:16--><g   id="j_4"  transform="translate(199,342)" style=""><g  id="v-15" style="opacity: 1;"><rect  x="0" y="160" width="400" height="240" rx="70" id="v-17" stroke-width="2" pointer-events="visiblePainted" fill="#0b5ed7" stroke="#0a55c2" stroke-dasharray=""></rect><circle  cx="200" cy="88.88888888888889" r="88.88888888888889" id="v-16" stroke-width="2" pointer-events="visiblePainted" fill="#0b5ed7" stroke="#0a55c2" stroke-dasharray=""></circle><line  x1="80" y1="266.6666666666667" x2="80" y2="400" id="v-23" stroke="#0a55c2" stroke-width="1" stroke-dasharray=""></line><line  x1="320" y1="266.6666666666667" x2="320" y2="400" id="v-24" stroke="#0a55c2" stroke-width="1" stroke-dasharray=""></line><text  id="v-18" font-size="33.599999999999994px" xml:space="preserve" y="196.74" font-weight="bold" text-anchor="middle" pointer-events="visible" font-family="Open Sans, Tahoma, Arial" fill="#ffffff" dominant-baseline="hanging" transform="matrix(1,0,0,1,200,0)"><tspan dy="0" >Nursing Home</tspan><tspan dy="1.2em" x="0" >Administrator</tspan></text><text  id="v-19" font-size="16.799999999999997px" xml:space="preserve" y="278.65999999999997" text-anchor="middle" font-family="Open Sans, Tahoma, Arial" fill="#ffffff" dominant-baseline="hanging" transform="matrix(1,0,0,1,200,0)" style="display: block;"><tspan dy="0" >[Person]</tspan></text><text  id="v-20" font-size="24px" xml:space="preserve" y="310.46" text-anchor="middle" font-family="Open Sans, Tahoma, Arial" fill="#ffffff" dominant-baseline="hanging" transform="matrix(1,0,0,1,200,0)" style="display: block;"><tspan dy="0" >Manages residents, staff, and</tspan><tspan dy="1.2em" x="0" >schedules in the nursing home.</tspan></text><g  id="v-21" font-weight="normal" text-anchor="middle" color="#ffffff" transform="matrix(1,0,0,1,197.5,368)" display="none"><g ></g><g ></g><g ></g><g ></g></g><image  id="v-22"></image></g></g><!--z-index:17--><g   id="j_5"  transform="translate(199,1042)" style=""><g  id="v-28" style="opacity: 1;"><rect  x="0" y="160" width="400" height="240" rx="70" id="v-30" stroke-width="2" pointer-events="visiblePainted" fill="#0b5ed7" stroke="#0a55c2" stroke-dasharray=""></rect><circle  cx="200" cy="88.88888888888889" r="88.88888888888889" id="v-29" stroke-width="2" pointer-events="visiblePainted" fill="#0b5ed7" stroke="#0a55c2" stroke-dasharray=""></circle><line  x1="80" y1="266.6666666666667" x2="80" y2="400" id="v-36" stroke="#0a55c2" stroke-width="1" stroke-dasharray=""></line><line  x1="320" y1="266.6666666666667" x2="320" y2="400" id="v-37" stroke="#0a55c2" stroke-width="1" stroke-dasharray=""></line><text  id="v-31" font-size="33.599999999999994px" xml:space="preserve" y="202.5" font-weight="bold" text-anchor="middle" pointer-events="visible" font-family="Open Sans, Tahoma, Arial" fill="#ffffff" dominant-baseline="hanging" transform="matrix(1,0,0,1,200,0)"><tspan dy="0" >Family Member</tspan></text><text  id="v-32" font-size="16.799999999999997px" xml:space="preserve" y="244.1" text-anchor="middle" font-family="Open Sans, Tahoma, Arial" fill="#ffffff" dominant-baseline="hanging" transform="matrix(1,0,0,1,200,0)" style="display: block;"><tspan dy="0" >[Person]</tspan></text><text  id="v-33" font-size="24px" xml:space="preserve" y="275.9" text-anchor="middle" font-family="Open Sans, Tahoma, Arial" fill="#ffffff" dominant-baseline="hanging" transform="matrix(1,0,0,1,200,0)" style="display: block;"><tspan dy="0" >Monitors the health and</tspan><tspan dy="1.2em" x="0" >wellbeing of their senior</tspan><tspan dy="1.2em" x="0" >relatives.</tspan></text><g  id="v-34" font-weight="normal" text-anchor="middle" color="#ffffff" transform="matrix(1,0,0,1,197.5,368)" display="none"><g ></g><g ></g><g ></g><g ></g></g><image  id="v-35"></image></g></g><!--z-index:18--><g   id="j_6"  transform="translate(1649,142)" style=""><g  id="v-41" style="opacity: 1;"><rect  id="v-42" rx="1" ry="1" stroke-width="2" pointer-events="visiblePainted" fill="#999999" stroke="#8a8a8a" stroke-dasharray="8,8" width="450" height="300"></rect><text  id="v-43" font-size="33.599999999999994px" xml:space="preserve" y="86.9" font-weight="bold" text-anchor="middle" pointer-events="visible" font-family="Open Sans, Tahoma, Arial" fill="#ffffff" dominant-baseline="hanging" transform="matrix(1,0,0,1,225,0)"><tspan dy="0" >Payment System</tspan></text><text  id="v-44" font-size="16.799999999999997px" xml:space="preserve" y="128.5" text-anchor="middle" font-family="Open Sans, Tahoma, Arial" fill="#ffffff" dominant-baseline="hanging" transform="matrix(1,0,0,1,225,0)" style="display: block;"><tspan dy="0" >[Software System]</tspan></text><text  id="v-45" font-size="24px" xml:space="preserve" y="160.3" text-anchor="middle" font-family="Open Sans, Tahoma, Arial" fill="#ffffff" dominant-baseline="hanging" transform="matrix(1,0,0,1,225,0)" style="display: block;"><tspan dy="0" >Stripe, processes subscriptions and</tspan><tspan dy="1.2em" x="0" >payments within the platform.</tspan></text><g  id="v-46" color="#ffffff" transform="matrix(1,0,0,1,222.5,268)" display="none"><g ></g><g ></g><g ></g><g ></g></g><image  id="v-47"></image></g></g><!--z-index:19--><g   id="j_7"  transform="translate(1649,742)" style=""><g  id="v-51" style="opacity: 1;"><rect  id="v-52" rx="1" ry="1" stroke-width="2" pointer-events="visiblePainted" fill="#999999" stroke="#8a8a8a" stroke-dasharray="8,8" width="450" height="300"></rect><text  id="v-53" font-size="33.599999999999994px" xml:space="preserve" y="86.9" font-weight="bold" text-anchor="middle" pointer-events="visible" font-family="Open Sans, Tahoma, Arial" fill="#ffffff" dominant-baseline="hanging" transform="matrix(1,0,0,1,225,0)"><tspan dy="0" >Google Maps API</tspan></text><text  id="v-54" font-size="16.799999999999997px" xml:space="preserve" y="128.5" text-anchor="middle" font-family="Open Sans, Tahoma, Arial" fill="#ffffff" dominant-baseline="hanging" transform="matrix(1,0,0,1,225,0)" style="display: block;"><tspan dy="0" >[Software System]</tspan></text><text  id="v-55" font-size="24px" xml:space="preserve" y="160.3" text-anchor="middle" font-family="Open Sans, Tahoma, Arial" fill="#ffffff" dominant-baseline="hanging" transform="matrix(1,0,0,1,225,0)" style="display: block;"><tspan dy="0" >Provides geolocation and directions</tspan><tspan dy="1.2em" x="0" >services.</tspan></text><g  id="v-56" color="#ffffff" transform="matrix(1,0,0,1,222.5,268)" display="none"><g ></g><g ></g><g ></g><g ></g></g><image  id="v-57"></image></g></g><!--z-index:20--><g   id="j_8"  transform="translate(1649,1342)" style=""><g  id="v-64" style="opacity: 1;"><rect  id="v-65" rx="1" ry="1" stroke-width="2" pointer-events="visiblePainted" fill="#999999" stroke="#8a8a8a" stroke-dasharray="8,8" width="450" height="300"></rect><text  id="v-66" font-size="33.599999999999994px" xml:space="preserve" y="72.5" font-weight="bold" text-anchor="middle" pointer-events="visible" font-family="Open Sans, Tahoma, Arial" fill="#ffffff" dominant-baseline="hanging" transform="matrix(1,0,0,1,225,0)"><tspan dy="0" >Email Notification Service</tspan></text><text  id="v-67" font-size="16.799999999999997px" xml:space="preserve" y="114.1" text-anchor="middle" font-family="Open Sans, Tahoma, Arial" fill="#ffffff" dominant-baseline="hanging" transform="matrix(1,0,0,1,225,0)" style="display: block;"><tspan dy="0" >[Software System]</tspan></text><text  id="v-68" font-size="24px" xml:space="preserve" y="145.89999999999998" text-anchor="middle" font-family="Open Sans, Tahoma, Arial" fill="#ffffff" dominant-baseline="hanging" transform="matrix(1,0,0,1,225,0)" style="display: block;"><tspan dy="0" >Sends email notifications when</tspan><tspan dy="1.2em" x="0" >accounts are created or important</tspan><tspan dy="1.2em" x="0" >events occur.</tspan></text><g  id="v-69" color="#ffffff" transform="matrix(1,0,0,1,222.5,268)" display="none"><g ></g><g ></g><g ></g><g ></g></g><image  id="v-70"></image></g></g><!--z-index:21--><g   id="j_9"  transform="translate(899,742)" style=""><g  id="v-77" style="opacity: 1;"><rect  id="v-78" rx="1" ry="1" stroke-width="2" pointer-events="visiblePainted" fill="#1168bd" stroke="#0f5eaa" stroke-dasharray="" width="450" height="300"></rect><text  id="v-79" font-size="33.599999999999994px" xml:space="preserve" y="72.5" font-weight="bold" text-anchor="middle" pointer-events="visible" font-family="Open Sans, Tahoma, Arial" fill="#ffffff" dominant-baseline="hanging" transform="matrix(1,0,0,1,225,0)"><tspan dy="0" >Veyra Software System</tspan></text><text  id="v-80" font-size="16.799999999999997px" xml:space="preserve" y="114.1" text-anchor="middle" font-family="Open Sans, Tahoma, Arial" fill="#ffffff" dominant-baseline="hanging" transform="matrix(1,0,0,1,225,0)" style="display: block;"><tspan dy="0" >[Software System]</tspan></text><text  id="v-81" font-size="24px" xml:space="preserve" y="145.89999999999998" text-anchor="middle" font-family="Open Sans, Tahoma, Arial" fill="#ffffff" dominant-baseline="hanging" transform="matrix(1,0,0,1,225,0)" style="display: block;"><tspan dy="0" >A comprehensive solution for</tspan><tspan dy="1.2em" x="0" >managing nursing homes or</tspan><tspan dy="1.2em" x="0" >supporting individual senior care.</tspan></text><g  id="v-82" color="#ffffff" transform="matrix(1,0,0,1,210,268)" display="none"><g  transform="translate(5 0)"><svg xmlns="http://www.w3.org/2000/svg" width="20" height="20" fill="currentColor" viewBox="0 0 16 16"><path fill-rule="evenodd" d="M6.5 12a5.5 5.5 0 1 0 0-11 5.5 5.5 0 0 0 0 11zM13 6.5a6.5 6.5 0 1 1-13 0 6.5 6.5 0 0 1 13 0z"></path><path d="M10.344 11.742c.03.04.062.078.098.115l3.85 3.85a1 1 0 0 0 1.415-1.414l-3.85-3.85a1.007 1.007 0 0 0-.115-.1 6.538 6.538 0 0 1-1.398 1.4z"></path><path fill-rule="evenodd" d="M6.5 3a.5.5 0 0 1 .5.5V6h2.5a.5.5 0 0 1 0 1H7v2.5a.5.5 0 0 1-1 0V7H3.5a.5.5 0 0 1 0-1H6V3.5a.5.5 0 0 1 .5-.5z"></path></svg></g><g ></g><g ></g><g ></g></g><image  id="v-83"></image></g></g><!--z-index:22--><g   id="j_10" ><path  stroke="#444444" d="M 599 639 L 899 783" id="v-96" stroke-width="2" stroke-dasharray="8 8" fill="none" style="opacity: 1;"></path><path  fill="black" stroke="black" d="M 0 0 0 0" transform="matrix(0.9005488032140698,0.43475493445124513,-0.43475493445124513,0.9005488032140698,599,638.5499877929688)"></path><path  fill="#444444" stroke="#444444" d="M 20 0 L 0 10 L 20 20 z" id="v-98" transform="matrix(-0.9005488176868498,-0.43475490447241305,0.43475490447241305,-0.9005488176868498,894.6524459680819,792.3855079247177)" style="opacity: 1;"></path><path  d="M 599 639 L 899 783" id="v-97" fill="none" style="cursor: auto; pointer-events: visiblepainted;"></path><g ><g id="v-90"  label-idx="0" cursor="move" transform="matrix(1,0,0,1,749,711)" style="cursor: default; opacity: 1;"><rect joint-selector="rect" id="v-93" fill="#ffffff" rx="3" ry="3" pointer-events="none" width="156.60806274414062" height="85.422119140625" transform="matrix(1,0,0,1,-78.3,-42.7)"></rect><text joint-selector="text" id="v-92" font-size="24px" xml:space="preserve" y="0.8em" fill="#444444" text-anchor="middle" pointer-events="none" font-family="Open Sans, Tahoma, Arial" font-weight="normal" transform="matrix(1,0,0,1,0,-37.6)"><tspan dy="0" >Manages</tspan><tspan dy="1.2em" x="0" >residents, staff</tspan><tspan dy="1.2em" x="0" >and schedules</tspan></text></g><g id="v-91"  label-idx="1" cursor="move" transform="matrix(1,0,0,1,739,751.7999877929688)" style="cursor: default; opacity: 1;"><rect joint-selector="rect" id="v-95" fill="#ffffff" rx="3" ry="3"  width="0" height="0" transform="matrix(1,0,0,1,0,0)" display="none"></rect><text joint-selector="text" id="v-94" fill="#000000" font-size="14" text-anchor="middle" pointer-events="none"></text></g></g><g  display="none" style="display: none;"></g><g  id="v-100" display="none"><g  id="v-88"><path  end="source" d="M 26 0 L 0 13 L 26 26 z"></path></g><g  id="v-89"><path  end="target" d="M 26 0 L 0 13 L 26 26 z"></path></g></g><g  id="v-99" display="none"><g  id="v-87" transform="translate(635.0609222987309, 656.3092427033909) "><g  event="remove"><circle r="11"></circle><path transform="scale(.8) translate(-16, -16)" d="M24.778,21.419 19.276,15.917 24.777,10.415 21.949,7.585 16.447,13.087 10.945,7.585 8.117,10.415 13.618,15.917 8.116,21.419 10.946,24.248 16.447,18.746 21.948,24.248z"></path><title>Remove link.</title></g><g  event="link:options"><circle r="11" transform="translate(25)"></circle><path fill="white" transform="scale(.55) translate(29, -16)" d="M31.229,17.736c0.064-0.571,0.104-1.148,0.104-1.736s-0.04-1.166-0.104-1.737l-4.377-1.557c-0.218-0.716-0.504-1.401-0.851-2.05l1.993-4.192c-0.725-0.91-1.549-1.734-2.458-2.459l-4.193,1.994c-0.647-0.347-1.334-0.632-2.049-0.849l-1.558-4.378C17.165,0.708,16.588,0.667,16,0.667s-1.166,0.041-1.737,0.105L12.707,5.15c-0.716,0.217-1.401,0.502-2.05,0.849L6.464,4.005C5.554,4.73,4.73,5.554,4.005,6.464l1.994,4.192c-0.347,0.648-0.632,1.334-0.849,2.05l-4.378,1.557C0.708,14.834,0.667,15.412,0.667,16s0.041,1.165,0.105,1.736l4.378,1.558c0.217,0.715,0.502,1.401,0.849,2.049l-1.994,4.193c0.725,0.909,1.549,1.733,2.459,2.458l4.192-1.993c0.648,0.347,1.334,0.633,2.05,0.851l1.557,4.377c0.571,0.064,1.148,0.104,1.737,0.104c0.588,0,1.165-0.04,1.736-0.104l1.558-4.377c0.715-0.218,1.399-0.504,2.049-0.851l4.193,1.993c0.909-0.725,1.733-1.549,2.458-2.458l-1.993-4.193c0.347-0.647,0.633-1.334,0.851-2.049L31.229,17.736zM16,20.871c-2.69,0-4.872-2.182-4.872-4.871c0-2.69,2.182-4.872,4.872-4.872c2.689,0,4.871,2.182,4.871,4.872C20.871,18.689,18.689,20.871,16,20.871z"></path><title>Link options.</title></g></g></g></g><!--z-index:23--><g   id="j_11" ><path  stroke="#444444" d="M 599 1145 L 899 1001" id="v-113" stroke-width="2" stroke-dasharray="8 8" fill="none" style="opacity: 1;"></path><path  fill="black" stroke="black" d="M 0 0 0 0" transform="matrix(0.9005487019045832,-0.43475514430305484,0.43475514430305484,0.9005487019045832,599,1145.449951171875)"></path><path  fill="#444444" stroke="#444444" d="M 20 0 L 0 10 L 20 20 z" id="v-115" transform="matrix(-0.9005488176868497,0.4347549044724133,-0.4347549044724133,-0.9005488176868497,903.3475440575302,1009.6254684290194)" style="opacity: 1;"></path><path  d="M 599 1145 L 899 1001" id="v-114" fill="none" style="cursor: auto; pointer-events: visiblepainted;"></path><g ><g id="v-107"  label-idx="0" cursor="move" transform="matrix(1,0,0,1,749,1073)" style="cursor: default; opacity: 1;"><rect joint-selector="rect" id="v-110" fill="#ffffff" rx="3" ry="3" pointer-events="none" width="182.4196014404297" height="114.22211456298828" transform="matrix(1,0,0,1,-91.2,-57.1)"></rect><text joint-selector="text" id="v-109" font-size="24px" xml:space="preserve" y="0.8em" fill="#444444" text-anchor="middle" pointer-events="none" font-family="Open Sans, Tahoma, Arial" font-weight="normal" transform="matrix(1,0,0,1,0,-52)"><tspan dy="0" >Monitors and</tspan><tspan dy="1.2em" x="0" >tracks health and</tspan><tspan dy="1.2em" x="0" >wellbeing of</tspan><tspan dy="1.2em" x="0" >relatives</tspan></text></g><g id="v-108"  label-idx="1" cursor="move" transform="matrix(1,0,0,1,739,1128.199951171875)" style="cursor: default; opacity: 1;"><rect joint-selector="rect" id="v-112" fill="#ffffff" rx="3" ry="3"  width="0" height="0" transform="matrix(1,0,0,1,0,0)" display="none"></rect><text joint-selector="text" id="v-111" fill="#000000" font-size="14" text-anchor="middle" pointer-events="none"></text></g></g><g  display="none" style="display: none;"></g><g  id="v-117" display="none"><g  id="v-105"><path  end="source" d="M 26 0 L 0 13 L 26 26 z"></path></g><g  id="v-106"><path  end="target" d="M 26 0 L 0 13 L 26 26 z"></path></g></g><g  id="v-116" display="none"><g  id="v-104" transform="translate(635.0609222987309, 1127.690757296609) "><g  event="remove"><circle r="11"></circle><path transform="scale(.8) translate(-16, -16)" d="M24.778,21.419 19.276,15.917 24.777,10.415 21.949,7.585 16.447,13.087 10.945,7.585 8.117,10.415 13.618,15.917 8.116,21.419 10.946,24.248 16.447,18.746 21.948,24.248z"></path><title>Remove link.</title></g><g  event="link:options"><circle r="11" transform="translate(25)"></circle><path fill="white" transform="scale(.55) translate(29, -16)" d="M31.229,17.736c0.064-0.571,0.104-1.148,0.104-1.736s-0.04-1.166-0.104-1.737l-4.377-1.557c-0.218-0.716-0.504-1.401-0.851-2.05l1.993-4.192c-0.725-0.91-1.549-1.734-2.458-2.459l-4.193,1.994c-0.647-0.347-1.334-0.632-2.049-0.849l-1.558-4.378C17.165,0.708,16.588,0.667,16,0.667s-1.166,0.041-1.737,0.105L12.707,5.15c-0.716,0.217-1.401,0.502-2.05,0.849L6.464,4.005C5.554,4.73,4.73,5.554,4.005,6.464l1.994,4.192c-0.347,0.648-0.632,1.334-0.849,2.05l-4.378,1.557C0.708,14.834,0.667,15.412,0.667,16s0.041,1.165,0.105,1.736l4.378,1.558c0.217,0.715,0.502,1.401,0.849,2.049l-1.994,4.193c0.725,0.909,1.549,1.733,2.459,2.458l4.192-1.993c0.648,0.347,1.334,0.633,2.05,0.851l1.557,4.377c0.571,0.064,1.148,0.104,1.737,0.104c0.588,0,1.165-0.04,1.736-0.104l1.558-4.377c0.715-0.218,1.399-0.504,2.049-0.851l4.193,1.993c0.909-0.725,1.733-1.549,2.458-2.458l-1.993-4.193c0.347-0.647,0.633-1.334,0.851-2.049L31.229,17.736zM16,20.871c-2.69,0-4.872-2.182-4.872-4.871c0-2.69,2.182-4.872,4.872-4.872c2.689,0,4.871,2.182,4.871,4.872C20.871,18.689,18.689,20.871,16,20.871z"></path><title>Link options.</title></g></g></g></g><!--z-index:24--><g   id="j_12" ><path  stroke="#444444" d="M 1312 742 L 1687 442" id="v-130" stroke-width="2" stroke-dasharray="8 8" fill="none" style="opacity: 1;"></path><path  fill="black" stroke="black" d="M 0 0 0 0" transform="matrix(0.7808686753084834,-0.624695215222571,0.624695215222571,0.7808686753084834,1311.5,742)"></path><path  fill="#444444" stroke="#444444" d="M 20 0 L 0 10 L 20 20 z" id="v-132" transform="matrix(-0.7808688416748546,0.6246950072646418,-0.6246950072646418,-0.7808688416748546,1692.7469226690826,449.80868658628964)" style="opacity: 1;"></path><path  d="M 1312 742 L 1687 442" id="v-131" fill="none" style="cursor: auto; pointer-events: visiblepainted;"></path><g ><g id="v-124"  label-idx="0" cursor="move" transform="matrix(1,0,0,1,1499.5,592)" style="cursor: default; opacity: 1;"><rect joint-selector="rect" id="v-127" fill="#ffffff" rx="3" ry="3" pointer-events="none" width="183.9411163330078" height="85.422119140625" transform="matrix(1,0,0,1,-92,-42.7)"></rect><text joint-selector="text" id="v-126" font-size="24px" xml:space="preserve" y="0.8em" fill="#444444" text-anchor="middle" pointer-events="none" font-family="Open Sans, Tahoma, Arial" font-weight="normal" transform="matrix(1,0,0,1,0,-37.6)"><tspan dy="0" >Processes</tspan><tspan dy="1.2em" x="0" >subscriptions and</tspan><tspan dy="1.2em" x="0" >payments</tspan></text></g><g id="v-125"  label-idx="1" cursor="move" transform="matrix(1,0,0,1,1489.5,632.7999877929688)" style="cursor: default; opacity: 1;"><rect joint-selector="rect" id="v-129" fill="#ffffff" rx="3" ry="3"  width="0" height="0" transform="matrix(1,0,0,1,0,0)" display="none"></rect><text joint-selector="text" id="v-128" fill="#000000" font-size="14" text-anchor="middle" pointer-events="none"></text></g></g><g  display="none" style="display: none;"></g><g  id="v-134" display="none"><g  id="v-122"><path  end="source" d="M 26 0 L 0 13 L 26 26 z"></path></g><g  id="v-123"><path  end="target" d="M 26 0 L 0 13 L 26 26 z"></path></g></g><g  id="v-133" display="none"><g  id="v-121" transform="translate(1343.2347523777214, 717.0121980978231) "><g  event="remove"><circle r="11"></circle><path transform="scale(.8) translate(-16, -16)" d="M24.778,21.419 19.276,15.917 24.777,10.415 21.949,7.585 16.447,13.087 10.945,7.585 8.117,10.415 13.618,15.917 8.116,21.419 10.946,24.248 16.447,18.746 21.948,24.248z"></path><title>Remove link.</title></g><g  event="link:options"><circle r="11" transform="translate(25)"></circle><path fill="white" transform="scale(.55) translate(29, -16)" d="M31.229,17.736c0.064-0.571,0.104-1.148,0.104-1.736s-0.04-1.166-0.104-1.737l-4.377-1.557c-0.218-0.716-0.504-1.401-0.851-2.05l1.993-4.192c-0.725-0.91-1.549-1.734-2.458-2.459l-4.193,1.994c-0.647-0.347-1.334-0.632-2.049-0.849l-1.558-4.378C17.165,0.708,16.588,0.667,16,0.667s-1.166,0.041-1.737,0.105L12.707,5.15c-0.716,0.217-1.401,0.502-2.05,0.849L6.464,4.005C5.554,4.73,4.73,5.554,4.005,6.464l1.994,4.192c-0.347,0.648-0.632,1.334-0.849,2.05l-4.378,1.557C0.708,14.834,0.667,15.412,0.667,16s0.041,1.165,0.105,1.736l4.378,1.558c0.217,0.715,0.502,1.401,0.849,2.049l-1.994,4.193c0.725,0.909,1.549,1.733,2.459,2.458l4.192-1.993c0.648,0.347,1.334,0.633,2.05,0.851l1.557,4.377c0.571,0.064,1.148,0.104,1.737,0.104c0.588,0,1.165-0.04,1.736-0.104l1.558-4.377c0.715-0.218,1.399-0.504,2.049-0.851l4.193,1.993c0.909-0.725,1.733-1.549,2.458-2.458l-1.993-4.193c0.347-0.647,0.633-1.334,0.851-2.049L31.229,17.736zM16,20.871c-2.69,0-4.872-2.182-4.872-4.871c0-2.69,2.182-4.872,4.872-4.872c2.689,0,4.871,2.182,4.871,4.872C20.871,18.689,18.689,20.871,16,20.871z"></path><title>Link options.</title></g></g></g></g><!--z-index:25--><g   id="j_13" ><path  stroke="#444444" d="M 1349 892 L 1649 892" id="v-147" stroke-width="2" stroke-dasharray="8 8" fill="none" style="opacity: 1;"></path><path  fill="black" stroke="black" d="M 0 0 0 0" transform="matrix(1,0,0,1,1349,892)"></path><path  fill="#444444" stroke="#444444" d="M 20 0 L 0 10 L 20 20 z" id="v-149" transform="matrix(-1,1.2246467991473532e-16,-1.2246467991473532e-16,-1,1649,902)" style="opacity: 1;"></path><path  d="M 1349 892 L 1649 892" id="v-148" fill="none" style="cursor: auto; pointer-events: visiblepainted;"></path><g ><g id="v-141"  label-idx="0" cursor="move" transform="matrix(1,0,0,1,1499,892)" style="cursor: default; opacity: 1;"><rect joint-selector="rect" id="v-144" fill="#ffffff" rx="3" ry="3" pointer-events="none" width="159.97714233398438" height="56.62211608886719" transform="matrix(1,0,0,1,-80,-28.3)"></rect><text joint-selector="text" id="v-143" font-size="24px" xml:space="preserve" y="0.8em" fill="#444444" text-anchor="middle" pointer-events="none" font-family="Open Sans, Tahoma, Arial" font-weight="normal" transform="matrix(1,0,0,1,0,-23.2)"><tspan dy="0" >Gets addresses</tspan><tspan dy="1.2em" x="0" >and directions</tspan></text></g><g id="v-142"  label-idx="1" cursor="move" transform="matrix(1,0,0,1,1489,918.4000244140625)" style="cursor: default; opacity: 1;"><rect joint-selector="rect" id="v-146" fill="#ffffff" rx="3" ry="3"  width="0" height="0" transform="matrix(1,0,0,1,0,0)" display="none"></rect><text joint-selector="text" id="v-145" fill="#000000" font-size="14" text-anchor="middle" pointer-events="none"></text></g></g><g  display="none" style="display: none;"></g><g  id="v-151" display="none"><g  id="v-139"><path  end="source" d="M 26 0 L 0 13 L 26 26 z"></path></g><g  id="v-140"><path  end="target" d="M 26 0 L 0 13 L 26 26 z"></path></g></g><g  id="v-150" display="none"><g  id="v-138" transform="translate(1389, 892) "><g  event="remove"><circle r="11"></circle><path transform="scale(.8) translate(-16, -16)" d="M24.778,21.419 19.276,15.917 24.777,10.415 21.949,7.585 16.447,13.087 10.945,7.585 8.117,10.415 13.618,15.917 8.116,21.419 10.946,24.248 16.447,18.746 21.948,24.248z"></path><title>Remove link.</title></g><g  event="link:options"><circle r="11" transform="translate(25)"></circle><path fill="white" transform="scale(.55) translate(29, -16)" d="M31.229,17.736c0.064-0.571,0.104-1.148,0.104-1.736s-0.04-1.166-0.104-1.737l-4.377-1.557c-0.218-0.716-0.504-1.401-0.851-2.05l1.993-4.192c-0.725-0.91-1.549-1.734-2.458-2.459l-4.193,1.994c-0.647-0.347-1.334-0.632-2.049-0.849l-1.558-4.378C17.165,0.708,16.588,0.667,16,0.667s-1.166,0.041-1.737,0.105L12.707,5.15c-0.716,0.217-1.401,0.502-2.05,0.849L6.464,4.005C5.554,4.73,4.73,5.554,4.005,6.464l1.994,4.192c-0.347,0.648-0.632,1.334-0.849,2.05l-4.378,1.557C0.708,14.834,0.667,15.412,0.667,16s0.041,1.165,0.105,1.736l4.378,1.558c0.217,0.715,0.502,1.401,0.849,2.049l-1.994,4.193c0.725,0.909,1.549,1.733,2.459,2.458l4.192-1.993c0.648,0.347,1.334,0.633,2.05,0.851l1.557,4.377c0.571,0.064,1.148,0.104,1.737,0.104c0.588,0,1.165-0.04,1.736-0.104l1.558-4.377c0.715-0.218,1.399-0.504,2.049-0.851l4.193,1.993c0.909-0.725,1.733-1.549,2.458-2.458l-1.993-4.193c0.347-0.647,0.633-1.334,0.851-2.049L31.229,17.736zM16,20.871c-2.69,0-4.872-2.182-4.872-4.871c0-2.69,2.182-4.872,4.872-4.872c2.689,0,4.871,2.182,4.871,4.872C20.871,18.689,18.689,20.871,16,20.871z"></path><title>Link options.</title></g></g></g></g><!--z-index:26--><g   id="j_14" ><path  stroke="#444444" d="M 1312 1042 L 1687 1342" id="v-164" stroke-width="2" stroke-dasharray="8 8" fill="none" style="opacity: 1;"></path><path  fill="black" stroke="black" d="M 0 0 0 0" transform="matrix(0.7808688000832672,0.624695059254128,-0.624695059254128,0.7808688000832672,1311.5,1042)"></path><path  fill="#444444" stroke="#444444" d="M 20 0 L 0 10 L 20 20 z" id="v-166" transform="matrix(-0.7808688416748548,-0.6246950072646416,0.6246950072646416,-0.7808688416748548,1680.2530225237897,1349.8086902472076)" style="opacity: 1;"></path><path  d="M 1312 1042 L 1687 1342" id="v-165" fill="none" style="cursor: auto; pointer-events: visiblepainted;"></path><g ><g id="v-158"  label-idx="0" cursor="move" transform="matrix(1,0,0,1,1499.5,1192)" style="cursor: default; opacity: 1;"><rect joint-selector="rect" id="v-161" fill="#ffffff" rx="3" ry="3" pointer-events="none" width="127.42745208740234" height="56.62211608886719" transform="matrix(1,0,0,1,-63.7,-28.3)"></rect><text joint-selector="text" id="v-160" font-size="24px" xml:space="preserve" y="0.8em" fill="#444444" text-anchor="middle" pointer-events="none" font-family="Open Sans, Tahoma, Arial" font-weight="normal" transform="matrix(1,0,0,1,0,-23.2)"><tspan dy="0" >Sends email</tspan><tspan dy="1.2em" x="0" >notifications</tspan></text></g><g id="v-159"  label-idx="1" cursor="move" transform="matrix(1,0,0,1,1489.5,1218.4000244140625)" style="cursor: default; opacity: 1;"><rect joint-selector="rect" id="v-163" fill="#ffffff" rx="3" ry="3"  width="0" height="0" transform="matrix(1,0,0,1,0,0)" display="none"></rect><text joint-selector="text" id="v-162" fill="#000000" font-size="14" text-anchor="middle" pointer-events="none"></text></g></g><g  display="none" style="display: none;"></g><g  id="v-168" display="none"><g  id="v-156"><path  end="source" d="M 26 0 L 0 13 L 26 26 z"></path></g><g  id="v-157"><path  end="target" d="M 26 0 L 0 13 L 26 26 z"></path></g></g><g  id="v-167" display="none"><g  id="v-155" transform="translate(1343.2347523777214, 1066.9878019021771) "><g  event="remove"><circle r="11"></circle><path transform="scale(.8) translate(-16, -16)" d="M24.778,21.419 19.276,15.917 24.777,10.415 21.949,7.585 16.447,13.087 10.945,7.585 8.117,10.415 13.618,15.917 8.116,21.419 10.946,24.248 16.447,18.746 21.948,24.248z"></path><title>Remove link.</title></g><g  event="link:options"><circle r="11" transform="translate(25)"></circle><path fill="white" transform="scale(.55) translate(29, -16)" d="M31.229,17.736c0.064-0.571,0.104-1.148,0.104-1.736s-0.04-1.166-0.104-1.737l-4.377-1.557c-0.218-0.716-0.504-1.401-0.851-2.05l1.993-4.192c-0.725-0.91-1.549-1.734-2.458-2.459l-4.193,1.994c-0.647-0.347-1.334-0.632-2.049-0.849l-1.558-4.378C17.165,0.708,16.588,0.667,16,0.667s-1.166,0.041-1.737,0.105L12.707,5.15c-0.716,0.217-1.401,0.502-2.05,0.849L6.464,4.005C5.554,4.73,4.73,5.554,4.005,6.464l1.994,4.192c-0.347,0.648-0.632,1.334-0.849,2.05l-4.378,1.557C0.708,14.834,0.667,15.412,0.667,16s0.041,1.165,0.105,1.736l4.378,1.558c0.217,0.715,0.502,1.401,0.849,2.049l-1.994,4.193c0.725,0.909,1.549,1.733,2.459,2.458l4.192-1.993c0.648,0.347,1.334,0.633,2.05,0.851l1.557,4.377c0.571,0.064,1.148,0.104,1.737,0.104c0.588,0,1.165-0.04,1.736-0.104l1.558-4.377c0.715-0.218,1.399-0.504,2.049-0.851l4.193,1.993c0.909-0.725,1.733-1.549,2.458-2.458l-1.993-4.193c0.347-0.647,0.633-1.334,0.851-2.049L31.229,17.736zM16,20.871c-2.69,0-4.872-2.182-4.872-4.871c0-2.69,2.182-4.872,4.872-4.872c2.689,0,4.871,2.182,4.871,4.872C20.871,18.689,18.689,20.871,16,20.871z"></path><title>Link options.</title></g></g></g></g><!--z-index:27--></g><g ></g><g ></g><g ></g></g></svg>